# xmcd
#
# Track frame offsets: 
#        150
#        18910
#        36683
#        59046
#        80852
#        97868
#        122059
#        136036
#        150827
#        169234
#        195416
#        214290
#        225082
#
# Disc length: 3237 seconds
#
# Revision: 0
# Processed by: cddbd v1.5.2PL0 Copyright (c) Steve Scherf et al.
# Submitted via: ExactAudioCopy v1.0b1
#
DISCID=a50ca30d
DTITLE=KENNY  WAYNE - AN OLD ROCK ON A ROLL
DYEAR=2011
DGENRE=Blues
TTITLE0=Searching For My Baby
TTITLE1=Fantasy Meets Reality
TTITLE2=Heaven, Send Me An Angel
TTITLE3=Devil Woman
TTITLE4=An Old Rock On A Roll
TTITLE5=Don`t Pretend
TTITLE6=Run Little Joe
TTITLE7=Howlin`
TTITLE8=Wild Turkey 101 Proof
TTITLE9=Bring Back The Love
TTITLE10=Way Overdue
TTITLE11=Rocking Bogie Party
TTITLE12=Give Thanks
EXTD=
EXTT0=
EXTT1=
EXTT2=
EXTT3=
EXTT4=
EXTT5=
EXTT6=
EXTT7=
EXTT8=
EXTT9=
EXTT10=
EXTT11=
EXTT12=
PLAYORDER=
